<?xml version="1.0" standalone="no"?>
<!DOCTYPE svg PUBLIC "-//W3C//DTD SVG 20010904//EN"
 "http://www.w3.org/TR/2001/REC-SVG-20010904/DTD/svg10.dtd">
<svg version="1.0" xmlns="http://www.w3.org/2000/svg"
 width="300.000000pt" height="152.000000pt" viewBox="0 0 300.000000 152.000000"
 preserveAspectRatio="xMidYMid meet">
<metadata>
Created by potrace 1.10, written by Peter Selinger 2001-2011
</metadata>
<g transform="translate(0.000000,152.000000) scale(0.100000,-0.100000)"
fill="#000000" stroke="none">
<path d="M1710 1505 c0 -9 7 -29 15 -45 l15 -30 -28 6 c-20 4 -34 0 -46 -11
-21 -22 -8 -41 49 -66 22 -10 32 -19 23 -19 -28 0 -21 -27 15 -56 l33 -26 -28
-28 c-23 -24 -28 -36 -27 -77 1 -26 4 -59 8 -73 8 -28 -13 -80 -32 -80 -11 0
-47 -68 -47 -89 0 -5 -9 -13 -20 -16 -17 -5 -20 -15 -20 -59 0 -52 17 -85 35
-68 5 4 5 2 2 -4 -8 -14 38 -58 52 -49 6 3 9 11 6 16 -3 5 1 6 9 3 19 -7 39
30 30 58 -4 14 -2 18 5 14 6 -4 11 -3 11 3 0 5 -3 11 -7 14 -5 2 -3 2 4 1 6
-2 14 5 17 14 3 9 3 -1 0 -23 -3 -21 -12 -52 -21 -68 -8 -16 -13 -31 -10 -33
11 -11 111 113 138 171 17 36 35 67 39 70 5 3 21 -6 36 -20 24 -22 30 -24 42
-11 8 8 17 35 19 60 5 38 3 46 -11 46 -10 0 -16 8 -16 23 0 23 -17 47 -32 47
-4 0 -8 -25 -8 -55 0 -41 -4 -55 -14 -55 -12 0 -13 17 -9 93 5 103 -13 159
-53 165 -19 3 -22 11 -26 66 -6 71 -25 117 -39 95 -7 -11 -9 -12 -9 -1 0 30
-34 84 -61 97 -35 19 -39 19 -39 0z m81 -78 c24 -53 25 -75 4 -57 -12 10 -11
2 4 -34 26 -58 19 -83 -14 -58 -13 9 -21 20 -18 25 2 4 -3 7 -11 7 -9 0 -16 5
-16 10 0 6 10 10 23 10 18 1 15 5 -18 25 -26 16 -33 25 -22 25 11 0 15 5 11
11 -3 6 -17 8 -30 5 -13 -4 -24 -2 -24 3 0 12 37 24 49 16 5 -3 12 -1 16 5 10
16 28 12 21 -5 -3 -9 1 -15 11 -15 14 0 14 2 0 23 -8 12 -20 21 -26 20 -6 -2
-11 1 -11 6 0 5 -3 17 -7 26 -14 38 39 -7 58 -48z m99 -197 c11 -7 8 -10 -16
-10 -36 0 -49 -12 -60 -55 -4 -17 -14 -35 -23 -42 -14 -11 -14 -12 0 -13 8 0
22 -15 30 -32 10 -25 20 -32 36 -31 17 2 24 -4 30 -25 l7 -27 7 35 c4 19 12
55 17 80 l10 45 1 -52 c1 -28 -3 -54 -8 -57 -5 -3 -7 -15 -4 -26 6 -23 -35
-140 -48 -140 -11 0 -11 -3 6 45 20 57 19 63 -19 79 -26 11 -37 24 -49 58
l-15 43 -1 -37 c-1 -28 5 -41 25 -57 15 -12 35 -21 45 -21 23 0 24 -12 4 -50
-9 -17 -13 -30 -10 -30 4 0 -2 -15 -11 -32 -32 -62 -35 -70 -31 -74 2 -2 12
12 23 31 10 19 23 35 27 35 12 0 -19 -50 -44 -71 -10 -9 -16 -19 -14 -23 3 -3
0 -2 -6 2 -11 10 -2 62 10 62 4 0 5 14 3 31 -3 20 0 34 9 40 10 6 11 9 2 9 -7
0 -13 9 -13 21 0 28 -18 59 -34 59 -8 0 -20 7 -27 16 -12 15 -11 16 11 9 21
-7 23 -6 13 7 -7 8 -12 30 -11 49 0 19 -2 44 -6 57 -6 18 -3 22 16 23 l23 2
-22 4 c-27 5 -27 2 -7 41 14 29 20 32 62 32 26 0 54 -5 62 -10z m16 -57 c4
-20 3 -52 -2 -72 -8 -30 -13 -35 -39 -36 -25 0 -30 5 -36 33 -9 45 3 97 23 97
9 0 20 4 24 8 15 14 23 6 30 -30z m68 -195 c-4 -18 -9 -27 -11 -20 -3 6 -12
12 -21 13 -12 0 -10 3 6 9 12 5 22 17 22 26 0 10 3 15 6 11 3 -3 3 -21 -2 -39z
m-186 -63 c4 -45 2 -54 -10 -50 -9 4 -14 24 -16 58 -1 28 -7 54 -12 55 -6 2
-7 8 -4 14 13 21 37 -23 42 -77z m-48 60 c10 -12 10 -18 -1 -31 -11 -14 -10
-18 6 -30 15 -11 16 -17 7 -26 -9 -9 -12 -9 -12 2 0 7 -3 10 -7 7 -10 -11 -33
13 -33 34 0 11 7 19 18 19 16 1 16 1 0 11 -10 5 -18 14 -18 19 0 15 26 12 40
-5z m280 -5 c0 -5 -8 -10 -17 -10 -14 0 -15 -2 -4 -9 8 -5 9 -11 3 -15 -14 -8
-24 8 -16 28 7 17 34 22 34 6z m-296 -90 c28 -10 33 -29 14 -48 -17 -17 -48 4
-48 33 0 28 0 28 34 15z m-18 -65 c12 -8 24 -12 28 -10 3 3 4 2 1 -2 -3 -3 1
-13 8 -21 9 -13 9 -14 0 -8 -8 4 -13 1 -13 -8 0 -9 -5 -16 -10 -16 -7 0 -7 6
-1 19 6 10 7 21 4 25 -4 4 -12 -6 -19 -21 l-13 -28 4 27 c2 15 -1 31 -7 34 -7
4 -8 2 -4 -4 4 -7 3 -12 -3 -12 -5 0 -9 9 -8 20 2 24 6 25 33 5z"/>
<path d="M2527 1316 c-58 -21 -110 -59 -162 -119 -28 -33 -66 -63 -96 -77 -27
-13 -47 -25 -44 -28 2 -2 22 5 45 17 22 11 42 21 44 21 3 0 -1 -13 -7 -30 -12
-32 -4 -50 17 -35 8 6 37 25 65 44 28 19 49 36 46 39 -2 2 -27 -12 -55 -32
l-51 -37 17 33 c28 53 123 146 178 173 88 42 181 43 146 0 -20 -24 -61 -44
-180 -86 -126 -46 -119 -51 12 -8 95 31 164 65 188 93 34 42 -75 63 -163 32z"/>
<path d="M2202 1220 c-34 -14 -48 -53 -35 -100 10 -39 10 -40 -22 -50 -46 -15
-85 -54 -85 -85 0 -21 4 -25 30 -25 22 0 43 11 73 39 l42 40 -3 75 c-2 66 0
77 17 86 29 15 39 12 44 -12 3 -20 4 -21 11 -5 17 36 -23 56 -72 37z m-22
-166 c0 -23 -64 -84 -89 -84 -26 0 -28 31 -3 52 19 17 73 47 85 48 4 0 7 -7 7
-16z"/>
<path d="M2677 1190 c-16 -5 -47 -26 -70 -47 -63 -57 -192 -153 -206 -153 -17
0 1 30 54 90 52 59 57 80 18 80 -21 0 -24 -3 -14 -9 12 -8 3 -22 -42 -71 -37
-40 -57 -70 -57 -86 0 -46 47 -27 164 66 41 33 78 55 81 50 9 -15 39 -12 85 6
54 22 45 29 -10 9 -24 -8 -45 -13 -48 -10 -8 7 19 35 49 51 32 16 119 19 119
4 0 -5 -4 -10 -9 -10 -14 0 -77 -61 -90 -88 -16 -30 8 -40 58 -24 64 19 231
85 227 90 -7 6 -69 -15 -164 -55 -46 -19 -86 -32 -89 -29 -12 12 59 75 108 96
59 25 62 34 11 28 -24 -4 -45 0 -57 8 -21 15 -74 17 -118 4z"/>
<path d="M1546 1120 c-23 -22 -63 -67 -86 -100 -24 -32 -45 -58 -47 -56 -2 2
6 32 16 67 13 39 17 67 11 73 -17 17 -39 -15 -46 -68 -6 -42 -14 -58 -50 -94
-24 -24 -49 -42 -56 -39 -9 2 -13 24 -13 65 0 98 -15 96 -69 -10 -90 -179
-125 -194 -98 -42 8 50 12 99 8 110 -7 18 -9 17 -30 -9 -20 -24 -22 -38 -21
-133 0 -90 3 -108 17 -118 24 -15 55 18 106 112 38 71 52 81 52 36 0 -68 37
-71 97 -9 63 66 56 29 -14 -75 -151 -222 -267 -291 -379 -225 -42 25 -103 93
-73 83 37 -13 84 54 96 137 4 31 11 46 24 50 21 7 69 61 69 78 0 6 -14 -5 -31
-26 -17 -20 -35 -37 -40 -37 -5 0 -9 26 -9 58 0 75 -14 123 -45 152 -21 20
-30 22 -52 14 -35 -12 -58 -69 -49 -119 8 -42 68 -113 103 -121 22 -6 24 -10
18 -43 -10 -54 -42 -120 -61 -128 -34 -13 -46 24 -40 124 3 61 2 94 -5 99 -21
13 -30 -22 -26 -103 l3 -83 -43 83 c-53 101 -94 141 -132 132 -92 -22 -182
-140 -377 -492 -96 -174 -104 -186 -112 -178 -4 4 -9 156 -12 339 -4 299 -7
335 -23 360 -38 58 -80 9 -103 -119 -26 -145 -9 -516 33 -699 27 -122 102
-173 134 -93 45 113 225 489 272 568 61 105 132 179 171 179 20 0 38 -19 95
-102 75 -111 138 -181 186 -206 42 -22 115 -19 169 8 90 43 149 116 358 442
57 89 134 178 155 178 8 0 24 -11 35 -25 21 -27 71 -35 84 -14 5 9 -1 10 -19
5 -21 -5 -32 0 -53 24 -15 16 -33 30 -41 30 -7 0 -33 -18 -57 -40z m-602 -59
c15 -30 31 -155 21 -171 -10 -16 -63 17 -85 53 -26 43 -26 111 0 137 24 24 46
17 64 -19z m-839 -128 c4 -10 9 -152 11 -315 2 -264 5 -301 20 -328 10 -16 26
-30 35 -30 21 0 62 47 90 102 27 52 37 41 14 -14 -74 -171 -125 -267 -138
-262 -48 18 -77 187 -84 491 -5 213 2 331 24 366 7 12 21 8 28 -10z m630 -99
c22 -37 54 -83 72 -102 18 -19 32 -37 31 -41 -9 -32 56 -108 112 -131 26 -11
41 -30 24 -30 -37 0 -143 101 -207 195 -63 95 -96 125 -134 125 -19 0 -45 -7
-58 -16 -33 -21 -32 -6 1 30 33 35 83 57 104 46 9 -5 33 -39 55 -76z"/>
<path d="M1871 751 c-7 -5 -13 -21 -13 -36 0 -47 64 -63 70 -17 3 17 -1 22
-20 21 -13 0 -17 -3 -10 -6 6 -2 12 -9 12 -14 0 -14 -27 -11 -32 4 -9 22 3 37
28 37 14 0 22 4 19 10 -8 12 -35 13 -54 1z"/>
<path d="M2000 714 c0 -27 4 -43 10 -39 6 3 10 14 11 23 0 13 3 12 11 -5 6
-13 15 -23 20 -23 11 0 10 7 -2 30 -7 13 -7 21 0 25 16 10 -8 35 -31 35 -16 0
-19 -8 -19 -46z"/>
<path d="M2130 739 c-25 -45 28 -93 59 -55 7 8 11 27 9 43 -4 37 -50 46 -68
12z m50 -24 c0 -25 -23 -35 -35 -15 -10 16 2 40 20 40 9 0 15 -9 15 -25z"/>
<path d="M2282 748 c-27 -27 -7 -78 30 -78 10 0 18 5 18 10 0 6 -9 10 -20 10
-15 0 -20 7 -20 25 0 18 5 25 20 25 11 0 20 5 20 10 0 14 -33 13 -48 -2z"/>
<path d="M2400 715 c0 -41 2 -45 25 -45 14 0 25 5 25 10 0 6 -7 10 -15 10 -21
0 -19 18 3 23 16 4 16 5 0 6 -22 1 -24 21 -3 21 8 0 15 5 15 10 0 6 -11 10
-25 10 -23 0 -25 -4 -25 -45z"/>
<path d="M2520 715 c0 -45 19 -66 21 -22 l0 22 11 -22 c16 -34 26 -28 25 15
-1 39 -10 52 -39 52 -15 0 -18 -9 -18 -45z"/>
<path d="M2650 715 c0 -25 5 -45 10 -45 6 0 10 20 10 45 0 25 -4 45 -10 45 -5
0 -10 -20 -10 -45z"/>
<path d="M2740 715 c0 -41 2 -45 25 -45 14 0 25 5 25 10 0 6 -7 10 -15 10 -21
0 -19 18 3 23 16 4 16 5 0 6 -22 1 -24 21 -3 21 8 0 15 5 15 10 0 6 -11 10
-25 10 -23 0 -25 -4 -25 -45z"/>
<path d="M2857 748 c-2 -7 5 -23 16 -35 l20 -23 -22 0 c-12 0 -19 -4 -16 -10
10 -16 45 -12 52 7 4 10 -2 23 -16 35 l-23 18 21 0 c12 0 19 5 16 10 -9 14
-42 12 -48 -2z"/>
<path d="M1331 431 c-11 -28 -26 -53 -31 -56 -6 -4 -8 -10 -5 -15 3 -5 -1 -33
-10 -62 -17 -58 -19 -88 -6 -88 5 0 11 17 15 38 12 73 27 112 43 112 12 0 13
3 4 14 -15 18 16 89 36 82 7 -3 13 -1 13 3 0 7 -23 21 -35 21 -1 0 -12 -22
-24 -49z"/>
<path d="M1610 440 c-24 -47 -51 -158 -41 -165 11 -6 31 42 25 59 -9 23 42
126 61 126 9 0 13 5 10 10 -13 21 -35 9 -55 -30z"/>
<path d="M2341 435 c-12 -25 -21 -49 -21 -53 0 -5 -10 -8 -21 -8 -16 1 -28
-11 -46 -43 -29 -55 -17 -77 22 -41 l25 23 0 -21 c0 -23 20 -32 21 -9 3 75 42
177 66 177 8 0 11 5 8 10 -13 21 -34 8 -54 -35z m-31 -82 c-1 -13 -49 -68 -54
-62 -8 7 32 69 44 69 5 0 10 -3 10 -7z"/>
<path d="M2483 468 c-23 -29 -66 -175 -56 -191 8 -14 23 14 23 45 0 38 29 109
51 130 11 9 19 19 19 22 0 11 -27 6 -37 -6z"/>
<path d="M2935 428 c-16 -34 -31 -53 -42 -53 -10 0 -27 -14 -38 -32 -11 -17
-27 -34 -35 -37 -8 -3 -21 -9 -27 -12 -7 -3 -13 0 -13 8 0 7 10 18 23 23 29
13 36 55 9 55 -22 0 -58 -70 -49 -94 8 -20 31 -20 47 -1 11 13 14 13 26 -2 13
-17 16 -16 40 12 23 27 25 28 22 8 -2 -12 1 -23 7 -25 5 -2 13 18 16 43 8 55
43 139 58 139 6 0 11 5 11 10 0 6 -7 10 -15 10 -9 0 -26 -22 -40 -52z m-34
-86 c-11 -20 -51 -58 -51 -48 0 19 32 66 46 66 11 0 12 -4 5 -18z"/>
<path d="M1828 383 c-9 -2 -22 -17 -28 -33 -17 -41 9 -83 48 -78 23 2 27 8 27
33 0 20 -5 31 -17 33 -10 2 -18 -1 -18 -7 0 -6 7 -11 15 -11 8 0 15 -7 15 -15
0 -9 -9 -15 -25 -15 -18 0 -26 7 -31 25 -9 36 12 58 50 51 29 -5 30 -5 12 9
-11 8 -22 14 -25 14 -3 -1 -13 -3 -23 -6z"/>
<path d="M770 325 c0 -54 0 -55 30 -55 17 0 30 5 30 10 0 6 -9 10 -20 10 -17
0 -20 7 -20 45 0 25 -4 45 -10 45 -5 0 -10 -25 -10 -55z"/>
<path d="M1126 330 c2 -71 14 -76 14 -7 0 31 -3 57 -7 57 -5 0 -7 -23 -7 -50z"/>
<path d="M1173 373 c13 -3 17 -15 17 -54 0 -27 5 -49 10 -49 6 0 10 22 10 49
0 39 4 51 18 54 9 3 -3 5 -28 5 -25 0 -37 -2 -27 -5z"/>
<path d="M1361 362 c-6 -11 -8 -22 -5 -24 2 -3 0 -17 -5 -31 -16 -41 6 -43 23
-3 21 50 10 100 -13 58z"/>
<path d="M1446 358 c-8 -13 -18 -35 -21 -49 -9 -37 21 -48 49 -18 l21 22 -27
-16 c-27 -17 -28 -17 -28 2 0 13 8 21 23 23 16 2 23 11 25 31 4 34 -21 37 -42
5z"/>
<path d="M1522 371 c-9 -5 -11 -19 -7 -43 6 -31 4 -36 -17 -43 -20 -6 -20 -8
-5 -12 32 -8 49 16 43 61 -3 23 -3 35 0 29 8 -18 24 -16 24 2 0 16 -18 19 -38
6z"/>
<path d="M1617 362 c-24 -27 -21 -39 4 -16 24 21 24 23 3 -53 -4 -13 -2 -23 3
-23 24 0 39 99 17 107 -6 2 -18 -5 -27 -15z"/>
<path d="M1992 363 c-5 -10 -8 -22 -7 -28 2 -5 6 -22 9 -37 6 -26 36 -41 36
-18 0 6 -4 10 -10 10 -14 0 -12 48 2 52 9 3 8 9 -4 22 -16 15 -18 15 -26 -1z"/>
<path d="M2090 323 c0 -31 3 -53 8 -49 4 4 7 30 7 57 0 27 -3 49 -7 49 -5 0
-8 -26 -8 -57z"/>
<path d="M2133 373 c13 -3 17 -15 17 -54 0 -27 5 -49 10 -49 6 0 10 22 10 49
0 39 4 51 18 54 9 3 -3 5 -28 5 -25 0 -37 -2 -27 -5z"/>
<path d="M2366 355 c-31 -48 -12 -108 23 -69 9 11 12 16 7 12 -14 -11 -36 -10
-36 2 0 6 11 15 25 20 18 7 25 17 25 35 0 32 -23 33 -44 0z"/>
<path d="M2489 380 c0 -3 -2 -14 -3 -25 -2 -11 -6 -36 -10 -55 -6 -27 -5 -32
4 -24 17 17 31 87 20 98 -6 6 -10 8 -11 6z"/>
<path d="M2533 367 c-14 -17 -4 -97 12 -97 7 0 22 15 33 34 27 46 36 76 22 76
-6 0 -13 -8 -16 -17 -16 -50 -27 -73 -35 -73 -12 0 -11 37 1 60 12 22 -3 36
-17 17z"/>
<path d="M2626 355 c-17 -27 -21 -71 -7 -79 14 -9 39 3 46 22 5 14 4 15 -6 5
-7 -7 -19 -13 -26 -13 -22 0 -14 20 12 30 18 7 25 17 25 35 0 32 -23 33 -44 0z"/>
<path d="M2705 370 c-3 -5 -8 -18 -10 -27 -2 -10 -6 -30 -10 -45 -10 -40 8
-35 28 7 19 40 21 49 8 41 -5 -4 -7 3 -4 14 6 21 -2 27 -12 10z"/>
<path d="M2734 369 c-3 -6 1 -18 10 -27 15 -15 16 -14 16 11 0 27 -13 36 -26
16z"/>
<path d="M846 344 c-19 -18 -20 -28 -6 -55 20 -36 70 -17 70 26 0 41 -36 58
-64 29z m44 -29 c0 -18 -5 -25 -20 -25 -20 0 -28 28 -13 43 15 16 33 6 33 -18z"/>
<path d="M920 350 c0 -23 30 -81 39 -76 12 8 35 76 28 83 -4 3 -12 -10 -20
-28 l-13 -34 -12 33 c-11 31 -22 42 -22 22z"/>
<path d="M1011 346 c-7 -8 -11 -27 -9 -43 2 -21 9 -29 27 -31 13 -2 28 2 35 8
8 9 6 11 -10 6 -13 -4 -26 -1 -34 9 -11 13 -8 15 19 15 32 0 41 16 19 38 -16
16 -33 15 -47 -2z"/>
<path d="M1908 334 c-8 -18 -9 -30 -1 -42 11 -19 63 -29 63 -13 0 6 -10 10
-21 8 -12 -1 -24 4 -26 11 -3 7 5 12 21 12 19 0 26 5 26 19 0 17 -18 31 -41
31 -5 0 -15 -12 -21 -26z"/>
</g>
</svg>
